<svg width="43" height="45" viewBox="0 0 43 45" fill="none" xmlns="http://www.w3.org/2000/svg">
<path d="M29.667 9.95355C29.4211 10.0781 29.1787 10.2099 28.9363 10.3564C28.2057 10.7958 27.4893 11.3305 26.7552 11.9457L25.1906 10.1037C25.7287 9.58734 26.3168 9.11859 26.9405 8.70477C27.4359 8.37152 27.9562 8.07855 28.4873 7.8222C28.7011 7.71234 28.915 7.6098 29.1324 7.51458C28.0988 5.63592 26.6126 4.28826 24.9304 3.45696C23.2517 2.62933 21.3663 2.31072 19.5344 2.49017C17.7132 2.66961 15.9419 3.35076 14.4806 4.51898C12.7913 5.86663 11.5011 7.88079 11.0093 10.5505L10.856 11.3854L10.047 11.5319C9.25578 11.6747 8.54654 11.8688 7.9264 12.1179C7.32408 12.3596 6.78947 12.6525 6.31902 13.0004C5.9448 13.2787 5.62047 13.5937 5.34604 13.9306C4.49424 14.978 4.09863 16.2927 4.10932 17.622C4.12002 18.9733 4.5477 20.3356 5.33535 21.4562C5.6276 21.8737 5.96975 22.2546 6.35823 22.5878C6.75027 22.9247 7.19577 23.2031 7.69474 23.4118C8.19014 23.6205 8.73543 23.7707 9.34488 23.8586H32.8211C33.9652 23.5766 34.9738 23.1921 35.8292 22.7014C36.681 22.2106 37.376 21.6174 37.8963 20.9033C38.7053 19.7973 39.1045 18.2299 39.1188 16.6259C39.1366 14.9413 38.7374 13.2494 37.9569 12.0153C37.7324 11.6601 37.49 11.3415 37.2298 11.0522C36.0608 9.75946 34.5782 9.19549 33.0385 9.1845C31.9159 9.17718 30.7647 9.4555 29.667 9.95355ZM40.384 30.8569C41.1075 30.8569 41.7597 31.1572 42.2337 31.6442C42.7077 32.1313 43 32.8051 43 33.5449C43 34.2883 42.7077 34.9584 42.2337 35.4455C41.7597 35.9326 41.1039 36.2328 40.384 36.2328C39.6605 36.2328 39.0083 35.9326 38.5343 35.4455C38.2884 35.1928 38.0888 34.8889 37.9569 34.5483H31.4454C30.9322 34.5483 30.5152 34.1198 30.5152 33.5925V26.3049H25.6004V39.7924C25.9497 39.9279 26.2633 40.1403 26.5199 40.404C26.9939 40.8911 27.2862 41.5649 27.2862 42.3046C27.2862 43.048 26.9939 43.7182 26.5199 44.2053C26.0459 44.6923 25.3901 44.9926 24.6702 44.9926C23.9467 44.9926 23.2945 44.6923 22.8205 44.2053C22.3465 43.7182 22.0542 43.0444 22.0542 42.3046C22.0542 41.5612 22.3465 40.8911 22.8205 40.404C23.0806 40.1367 23.3907 39.9279 23.74 39.7924V26.3085H18.1837V42.1545C18.1837 42.6818 17.7667 43.1103 17.2535 43.1103H6.90352C6.77522 43.5314 6.55068 43.9086 6.25487 44.2126C5.78085 44.6996 5.12507 44.9999 4.40514 44.9999C3.68164 44.9999 3.02942 44.6996 2.55541 44.2126C2.08139 43.7255 1.78914 43.0517 1.78914 42.312C1.78914 41.5685 2.08139 40.8984 2.55541 40.4113C3.02942 39.9243 3.6852 39.624 4.40514 39.624C5.12864 39.624 5.78085 39.9243 6.25487 40.4113C6.47584 40.6384 6.6576 40.9057 6.78947 41.2023H16.3232V26.3085H11.6401V31.2304C11.6401 31.7577 11.2231 32.1862 10.7099 32.1862H5.05736C4.92549 32.5341 4.72234 32.8454 4.46929 33.1054C3.99528 33.5925 3.33949 33.8928 2.61956 33.8928C1.89963 33.8928 1.24385 33.5925 0.76983 33.1054C0.29225 32.622 0 31.9482 0 31.2048C0 30.4614 0.29225 29.7912 0.766266 29.3041C1.24028 28.8171 1.89606 28.5168 2.616 28.5168C3.33593 28.5168 3.99171 28.8171 4.46573 29.3041C4.72947 29.5751 4.93974 29.9084 5.07161 30.2746H9.77613V26.3085H9.28786L9.13817 26.2939C8.27567 26.1804 7.48802 25.9716 6.77878 25.6713C6.04459 25.36 5.39237 24.9572 4.81857 24.4628C4.27683 23.9977 3.79925 23.4667 3.39296 22.8918C2.31305 21.361 1.73212 19.4897 1.71786 17.6293C1.7143 15.7507 2.28454 13.8793 3.51413 12.3632C3.9133 11.8725 4.38019 11.4221 4.91836 11.0229C5.54206 10.5578 6.25843 10.1623 7.0639 9.84002C7.61989 9.61663 8.21509 9.42987 8.84592 9.28338C9.55872 6.37933 11.077 4.14178 13.0265 2.58538C14.8513 1.13153 17.0503 0.285578 19.3099 0.0621892C21.5588 -0.161199 23.879 0.230646 25.9568 1.25604C28.2307 2.37664 30.2087 4.24066 31.4953 6.86639C32.0121 6.78216 32.5289 6.74188 33.0457 6.74554C35.2197 6.76019 37.3154 7.55853 38.9691 9.38958C39.3148 9.7741 39.6427 10.2026 39.9492 10.686C40.9863 12.3229 41.5138 14.5056 41.4924 16.6442C41.471 18.7426 40.9186 20.83 39.7924 22.3681C39.0582 23.3715 38.1173 24.1882 36.9875 24.8364C35.9005 25.4626 34.6317 25.9387 33.2096 26.2756L32.9459 26.3085H32.3828V32.6403H37.9248C38.0567 32.2631 38.267 31.9225 38.5378 31.6442C39.0047 31.1572 39.6605 30.8569 40.384 30.8569Z" fill="white"/>
</svg>
