<svg width="27" height="24" viewBox="0 0 27 24" fill="none" xmlns="http://www.w3.org/2000/svg">
<path fill-rule="evenodd" clip-rule="evenodd" d="M3.92787 3.87868C3.04919 4.75736 3.04919 6.17157 3.04919 9V15C3.04919 17.8284 3.04919 19.2426 3.92787 20.1213C4.80655 21 6.22077 21 9.0492 21H18.3607C21.1891 21 22.6033 21 23.482 20.1213C24.3607 19.2426 24.3607 17.8284 24.3607 15V9C24.3607 6.17157 24.3607 4.75736 23.482 3.87868C22.6033 3 21.1891 3 18.3607 3H9.04919C6.22077 3 4.80655 3 3.92787 3.87868ZM17.9672 8C18.5195 8 18.9672 8.44772 18.9672 9V17C18.9672 17.5523 18.5195 18 17.9672 18C17.4149 18 16.9672 17.5523 16.9672 17V9C16.9672 8.44772 17.4149 8 17.9672 8ZM10.4426 11C10.4426 10.4477 9.99492 10 9.44264 10C8.89035 10 8.44264 10.4477 8.44264 11L8.44264 17C8.44264 17.5523 8.89035 18 9.44264 18C9.99492 18 10.4426 17.5523 10.4426 17L10.4426 11ZM14.7049 13C14.7049 12.4477 14.2572 12 13.7049 12C13.1526 12 12.7049 12.4477 12.7049 13V17C12.7049 17.5523 13.1526 18 13.7049 18C14.2572 18 14.7049 17.5523 14.7049 17V13Z" fill="white"/>
</svg>
