<svg width="43" height="46" viewBox="0 0 43 46" fill="none" xmlns="http://www.w3.org/2000/svg">
<g clip-path="url(#clip0_1_78)">
<path fill-rule="evenodd" clip-rule="evenodd" d="M22.7512 0.913289C25.6848 2.70398 28.8482 4.14523 32.1672 5.20333C34.6299 6.00058 37.24 6.32779 39.8416 6.16541L42.5405 5.93705L42.6733 8.46017C43.168 17.7403 41.5591 25.8038 38.1845 32.1639C34.673 38.7824 29.2752 43.5629 22.3449 45.9886H20.5429C13.7695 43.6864 8.4119 39.037 4.85625 32.3361C1.5379 26.0471 -0.1635 17.9237 0.110012 8.23556L0.182412 5.74613L2.84111 5.87341C5.73535 6.04818 8.64062 5.77108 11.4366 5.05359C14.4632 4.23078 17.2894 2.86919 19.7586 1.04431L21.2026 -0.00012207L22.7512 0.913289ZM21.3715 7.22481C26.8136 10.4367 31.7288 11.9566 35.9481 11.6047C36.6842 25.4556 31.1818 36.0422 21.4278 39.46C12.0038 36.2593 6.43296 26.0396 6.84725 11.3838C11.7986 11.6272 16.6615 10.6351 21.3715 7.22481ZM18.387 23.0635C18.7625 23.3617 19.1172 23.6817 19.4489 24.0219C20.4516 22.5172 21.563 21.0776 22.7753 19.7131C26.0896 15.9883 25.1001 16.2316 29.6975 16.2316L29.0419 16.8905C27.3159 18.6925 25.7298 20.6065 24.2957 22.618C22.7014 24.7637 21.2558 27.0019 19.9678 29.3189L19.5655 30.0339L19.1995 29.3077C18.5494 27.987 17.7267 26.746 16.75 25.6128C15.8688 24.5766 14.8166 23.677 13.6328 22.9475C14.2321 21.1169 17.0879 22.0565 18.3669 23.0635H18.387ZM21.3554 2.96098C28.3461 7.07882 34.657 9.03292 40.0789 8.57621C41.0242 26.3915 33.9531 39.3365 21.4278 43.7276C9.33299 39.6135 2.17744 27.1215 2.70837 8.30294C9.06752 8.6099 15.31 7.33337 21.3554 2.96098Z" fill="white"/>
</g>
<defs>
<clipPath id="clip0_1_78">
<rect width="42.6799" height="46" fill="white" transform="translate(0.0818787 -0.00012207)"/>
</clipPath>
</defs>
</svg>
