<svg width="40" height="75" viewBox="0 0 40 75" fill="none" xmlns="http://www.w3.org/2000/svg">
<path d="M1 47.1028C1.34 50.7294 1.91 52.1828 2.71 51.4628" stroke="#6E4014" stroke-width="2"/>
<path d="M2.70996 51.4628L3.00996 72.6328C3.01231 72.845 3.07139 73.0527 3.18105 73.2344C3.29072 73.4162 3.44699 73.5652 3.63366 73.6662C3.82034 73.7672 4.03063 73.8164 4.24273 73.8088C4.45484 73.8012 4.66104 73.7369 4.83996 73.6228C5.58663 73.1494 5.76996 72.9161 5.38996 72.9228" stroke="#1C4A60" stroke-width="2"/>
<path d="M5.38989 72.9228L37.7399 51.6228C37.9146 51.5073 38.0557 51.3478 38.149 51.1604C38.2423 50.9729 38.2845 50.7641 38.2713 50.5552C38.2581 50.3462 38.19 50.1444 38.0739 49.9702C37.9577 49.7959 37.7977 49.6554 37.6099 49.5628C37.2432 49.3828 36.7766 49.3161 36.2099 49.3628" stroke="#5A5B5C" stroke-width="2"/>
<path d="M36.21 49.3627C36.07 48.8294 35.7834 48.4294 35.35 48.1627C29.29 44.3361 23.1 40.4661 16.78 36.5527" stroke="#152332" stroke-width="2"/>
<path d="M16.7799 36.5528C28.2099 30.5128 37.0199 21.6428 33.8799 7.51279C33.8532 7.39279 33.7799 7.34279 33.6599 7.36279H33.6499C33.5299 7.38279 33.4732 7.45279 33.4799 7.57279C34.0099 13.6828 28.2899 19.8228 23.4699 22.7328C23.1232 22.9395 22.9799 22.8461 23.0399 22.4528C24.2932 14.1795 22.0732 7.02946 16.3799 1.00279C16.3767 1.00087 16.373 0.999907 16.3692 1.00001C16.3654 1.00011 16.3618 1.00127 16.3586 1.00336C16.3555 1.00545 16.353 1.00838 16.3515 1.01182C16.3499 1.01526 16.3494 1.01906 16.3499 1.02279C21.6299 10.5128 15.0199 23.9028 8.15991 30.7528" stroke="#6E4014" stroke-width="2"/>
<path d="M8.1599 30.7528L4.2399 28.6128C4.13103 28.5532 4.01142 28.5157 3.88798 28.5025C3.76454 28.4893 3.63972 28.5007 3.52071 28.5361C3.4017 28.5714 3.29087 28.6299 3.19462 28.7083C3.09836 28.7867 3.01859 28.8834 2.9599 28.9928C2.4999 29.8595 2.41657 30.5461 2.7099 31.0528" stroke="#152332" stroke-width="2"/>
<path d="M2.70994 31.0527C2.38994 33.5727 2.52327 35.7061 3.10994 37.4527" stroke="#1C4A60" stroke-width="2"/>
<path d="M3.11 37.4528L1 43.1728" stroke="#6E4014" stroke-width="2"/>
<path d="M16.7799 36.5527C13.6666 38.0394 10.9566 40.0694 8.6499 42.6427" stroke="#654527" stroke-width="2"/>
<path d="M8.64996 42.6428C5.82996 45.1828 3.84996 48.1228 2.70996 51.4628" stroke="#6C6C55" stroke-width="2"/>
<path d="M3.11011 37.4528C4.15011 36.5994 4.82011 35.8094 5.12011 35.0828" stroke="#6C6C55" stroke-width="2"/>
<path d="M5.12012 35.0828L8.16012 30.7528" stroke="#654527" stroke-width="2"/>
<path d="M5.11996 35.0827L2.70996 31.0527" stroke="#134E73" stroke-width="2"/>
<path d="M36.21 49.3628L17.48 49.3428" stroke="#515F6F" stroke-width="2"/>
<path d="M17.4801 49.3428L12.3601 49.4328" stroke="#152332" stroke-width="2"/>
<path d="M12.3599 49.4328L8.6499 42.6428" stroke="#134E73" stroke-width="2"/>
<path d="M12.3601 49.4327L15.0301 54.3427" stroke="#1C4A60" stroke-width="2"/>
<path d="M15.0299 54.3428L5.38989 72.9228" stroke="#58869D" stroke-width="2"/>
<path d="M17.48 49.3428L15.03 54.3428" stroke="#5A5B5C" stroke-width="2"/>
<path d="M16.78 36.5528C13.6667 38.0395 10.9567 40.0695 8.65 42.6428C5.83 45.1828 3.85 48.1228 2.71 51.4628C1.91 52.1828 1.34 50.7295 1 47.1028V43.1728L3.11 37.4528C4.15 36.5995 4.82 35.8095 5.12 35.0828L8.16 30.7528C15.02 23.9028 21.63 10.5128 16.35 1.02279C16.3495 1.01906 16.35 1.01526 16.3516 1.01182C16.3531 1.00838 16.3556 1.00545 16.3587 1.00336C16.3618 1.00127 16.3655 1.00011 16.3693 1.00001C16.373 0.999907 16.3768 1.00087 16.38 1.00279C22.0733 7.02946 24.2933 14.1795 23.04 22.4528C22.98 22.8461 23.1233 22.9395 23.47 22.7328C28.29 19.8228 34.01 13.6828 33.48 7.57279C33.4733 7.45279 33.53 7.38279 33.65 7.36279H33.66C33.78 7.34279 33.8533 7.39279 33.88 7.51279C37.02 21.6428 28.21 30.5128 16.78 36.5528Z" fill="#BE6209"/>
<path d="M8.1599 30.7528L5.1199 35.0828L2.7099 31.0528C2.41657 30.5461 2.4999 29.8595 2.9599 28.9928C3.01859 28.8834 3.09836 28.7867 3.19462 28.7083C3.29087 28.6299 3.4017 28.5714 3.52071 28.5361C3.63972 28.5007 3.76454 28.4893 3.88798 28.5025C4.01142 28.5157 4.13103 28.5532 4.2399 28.6128L8.1599 30.7528Z" fill="#0C2745"/>
<path d="M2.70994 31.0529L5.11994 35.0829C4.81994 35.8095 4.14994 36.5995 3.10994 37.4529C2.52327 35.7062 2.38994 33.5729 2.70994 31.0529Z" fill="#1A75A1"/>
<path d="M16.7799 36.5529C23.0999 40.4662 29.2899 44.3362 35.3499 48.1629C35.7832 48.4295 36.0699 48.8295 36.2099 49.3629L17.4799 49.3429L12.3599 49.4329L8.6499 42.6429C10.9566 40.0695 13.6666 38.0395 16.7799 36.5529Z" fill="#0C2745"/>
<path d="M8.64996 42.6428L12.36 49.4328L15.03 54.3428L5.38996 72.9228C5.76996 72.9162 5.58663 73.1495 4.83996 73.6228C4.66104 73.737 4.45484 73.8012 4.24273 73.8089C4.03063 73.8165 3.82034 73.7673 3.63366 73.6663C3.44699 73.5653 3.29072 73.4162 3.18105 73.2345C3.07139 73.0528 3.01231 72.845 3.00996 72.6328L2.70996 51.4628C3.84996 48.1228 5.82996 45.1828 8.64996 42.6428Z" fill="#1A75A1"/>
<path d="M17.4801 49.3428L15.0301 54.3428L12.3601 49.4328L17.4801 49.3428Z" fill="#1E1E1E"/>
<path d="M36.2099 49.3628C36.7766 49.3161 37.2432 49.3828 37.6099 49.5628C37.7977 49.6554 37.9577 49.7959 38.0739 49.9701C38.19 50.1444 38.2581 50.3462 38.2713 50.5551C38.2845 50.7641 38.2423 50.9729 38.149 51.1603C38.0557 51.3478 37.9146 51.5073 37.7399 51.6228L5.38989 72.9228L15.0299 54.3428L17.4799 49.3428L36.2099 49.3628Z" fill="#959799"/>
</svg>
